# xmcd CD database file
#
# Track frame offsets:
#	150
#	15394
#	28464
#	41656
#	55108
#	68895
#	81802
#	95125
#	107642
#	120519
#	133116
#	144929
#	157929
#	172571
#	186205
#	200303
#	213385
#	227628
#	241392
#	255349
#	269438
#	281469
#	296174
#	316302
#
# Disc length: 4440 seconds
#
# Revision: 0
# Processed by: cddbd v1.5.2PL0 Copyright (c) Steve Scherf et al.
# Submitted via: CDex 1.70beta2
#
DISCID=50115618
DTITLE=Mississippi John Hurt - Stack O'Lee Blues
DYEAR=2013
DGENRE=Blues
TTITLE0=Frankie
TTITLE1=Nobody's Dirty Business
TTITLE2=Ain't no Tellin
TTITLE3=Louis Collins
TTITLE4=Avalon Blues
TTITLE5=Big Leg Blues
TTITLE6=Stack O'Lee Blues
TTITLE7=Candy Man Blues
TTITLE8=Got the Blues Can't be Satisfied
TTITLE9=Blessed be the Name
TTITLE10=Playing on the Old Camp Ground
TTITLE11=Blue Harvest Blues
TTITLE12=Spike Driver Blues
TTITLE13=She Could Toodle-Do
TTITLE14=Nobody Knows What the Good Deacon Does
TTITLE15=Shelby County Workhouse Blues
TTITLE16=Way Down In Arkansas
TTITLE17=Hambone Willie's Dreamy-Eyed Woman's Blues
TTITLE18=Roll and Tumble Blues
TTITLE19=James Alley Blues
TTITLE20=Never let the same Bee sting you twice
TTITLE21=I'm not Jealous
TTITLE22=Mystery of the Dunbar's Child
TTITLE23=Sinking of the Titanic
EXTD=YEAR: 2013
EXTT0=
EXTT1=
EXTT2=
EXTT3=
EXTT4=
EXTT5=
EXTT6=
EXTT7=
EXTT8=
EXTT9=
EXTT10=
EXTT11=
EXTT12=
EXTT13=
EXTT14=
EXTT15=
EXTT16=
EXTT17=
EXTT18=
EXTT19=
EXTT20=
EXTT21=
EXTT22=
EXTT23=
PLAYORDER=
